<svg width="24" height="24" viewBox="0 0 24 24" fill="none" xmlns="http://www.w3.org/2000/svg">
<path fill-rule="evenodd" clip-rule="evenodd" d="M17.5812 2.18638C18.0307 2.50739 18.1347 3.13194 17.8137 3.58135L11.2173 12.8164C10.8963 13.2658 10.2717 13.3699 9.82233 13.0489C9.37291 12.7278 9.26882 12.1033 9.58983 11.6539L16.1863 2.41888C16.5073 1.96946 17.1318 1.86537 17.5812 2.18638Z" fill="#692170"/>
<path fill-rule="evenodd" clip-rule="evenodd" d="M10.0546 13.5001C10.0546 12.9478 10.5023 12.5001 11.0546 12.5001H16C16.5523 12.5001 17 12.9478 17 13.5001C17 14.0524 16.5523 14.5001 16 14.5001H11.0546C10.5023 14.5001 10.0546 14.0524 10.0546 13.5001Z" fill="#692170"/>
<path fill-rule="evenodd" clip-rule="evenodd" d="M16.1322 12.5089C16.6796 12.5819 17.0642 13.0848 16.9912 13.6323L15.9912 21.1323C15.9182 21.6797 15.4153 22.0643 14.8678 21.9913C14.3204 21.9184 13.9358 21.4154 14.0088 20.868L15.0088 13.368C15.0818 12.8205 15.5847 12.4359 16.1322 12.5089Z" fill="#692170"/>
<path fill-rule="evenodd" clip-rule="evenodd" d="M22.1777 10.9515C22.6271 11.2725 22.7312 11.8971 22.4102 12.3465L15.8137 21.5815C15.4927 22.0309 14.8682 22.135 14.4188 21.814C13.9693 21.493 13.8653 20.8684 14.1863 20.419L20.7827 11.184C21.1037 10.7346 21.7283 10.6305 22.1777 10.9515Z" fill="#692170"/>
<path fill-rule="evenodd" clip-rule="evenodd" d="M15 10.5001C15 9.94783 15.4477 9.50012 16 9.50012H20.9454C21.4977 9.50012 21.9454 9.94783 21.9454 10.5001C21.9454 11.0524 21.4977 11.5001 20.9454 11.5001H16C15.4477 11.5001 15 11.0524 15 10.5001Z" fill="#692170"/>
<path fill-rule="evenodd" clip-rule="evenodd" d="M17.1322 2.00889C17.6796 2.08188 18.0642 2.58484 17.9912 3.13228L16.9912 10.6323C16.9182 11.1797 16.4153 11.5643 15.8678 11.4913C15.3204 11.4184 14.9358 10.9154 15.0088 10.368L16.0088 2.86795C16.0818 2.32051 16.5847 1.9359 17.1322 2.00889Z" fill="#692170"/>
<path fill-rule="evenodd" clip-rule="evenodd" d="M21.991 9.98225C22.5429 9.96178 23.0069 10.3926 23.0274 10.9445C23.0415 11.3261 22.8816 11.6275 22.7874 11.7887C22.6916 11.9525 22.5586 12.1386 22.4302 12.3182C22.4235 12.3276 22.4168 12.3372 22.4102 12.3465C22.0892 12.7959 21.4646 12.8998 21.0152 12.5788C20.5658 12.2578 20.4617 11.6334 20.7827 11.184C20.8572 11.0798 20.9156 10.9977 20.9645 10.9268C20.9999 10.8754 21.025 10.8374 21.0429 10.8087C21.1223 10.3536 21.5108 10.0001 21.991 9.98225Z" fill="#692170"/>
<path fill-rule="evenodd" clip-rule="evenodd" d="M21.2603 11.5016C21.1742 11.5001 21.0735 11.5001 20.9454 11.5001C20.3932 11.5001 19.9454 11.0524 19.9454 10.5001C19.9454 9.94783 20.3932 9.50012 20.9454 9.50012C20.9569 9.50012 20.9684 9.50011 20.9799 9.50011C21.2007 9.50006 21.4295 9.50001 21.6184 9.51729C21.8044 9.53429 22.1426 9.57933 22.4449 9.81266C22.8821 10.1501 22.963 10.7781 22.6255 11.2153C22.3319 11.5957 21.8184 11.7063 21.4019 11.5064C21.3682 11.5044 21.3226 11.5027 21.2603 11.5016Z" fill="#692170"/>
<path fill-rule="evenodd" clip-rule="evenodd" d="M21.0422 9.99313C21.3797 9.55592 22.0077 9.47522 22.4449 9.81266C22.7974 10.0848 23.0109 10.4995 23.0274 10.9445C23.0478 11.4964 22.617 11.9603 22.0651 11.9807C21.5896 11.9984 21.1794 11.6811 21.0618 11.24C20.7713 10.8879 20.7515 10.3698 21.0422 9.99313Z" fill="#692170"/>
<path fill-rule="evenodd" clip-rule="evenodd" d="M10.9849 11.4212C11.4343 11.7423 11.5383 12.3669 11.2173 12.8164C11.1428 12.9206 11.0844 13.0024 11.0356 13.0733C11.0002 13.1246 10.9751 13.1627 10.9572 13.1913C10.8778 13.6464 10.4893 14 10.0091 14.0178C9.45715 14.0383 8.99315 13.6075 8.97269 13.0556C8.95853 12.6739 9.11846 12.3725 9.21269 12.2114C9.30847 12.0476 9.4415 11.8614 9.56984 11.6818C9.57654 11.6724 9.58316 11.6632 9.58983 11.6539C9.91084 11.2045 10.5355 11.1002 10.9849 11.4212Z" fill="#692170"/>
<path fill-rule="evenodd" clip-rule="evenodd" d="M10.5981 12.494C10.1816 12.2941 9.6681 12.4047 9.3745 12.7851C9.03706 13.2223 9.11794 13.8503 9.55515 14.1877C9.85746 14.4211 10.1957 14.4661 10.3816 14.4831C10.5706 14.5004 10.7994 14.5003 11.0201 14.5003C11.0316 14.5003 11.0431 14.5001 11.0546 14.5001C11.6068 14.5001 12.0546 14.0526 12.0546 13.5003C12.0546 12.948 11.6068 12.5001 11.0546 12.5001C10.9265 12.5001 10.8258 12.5003 10.7397 12.4988C10.6774 12.4978 10.6318 12.4961 10.5981 12.494Z" fill="#692170"/>
<path fill-rule="evenodd" clip-rule="evenodd" d="M10.9381 12.76C10.8205 12.319 10.4103 12.0017 9.93487 12.0194C9.38296 12.0398 8.95222 12.5036 8.97269 13.0556C8.98919 13.5006 9.20258 13.9156 9.55515 14.1877C9.99235 14.5252 10.6203 14.4442 10.9577 14.007C11.2484 13.6303 11.2287 13.1121 10.9381 12.76Z" fill="#692170"/>
<path fill-rule="evenodd" clip-rule="evenodd" d="M2.5 17.5001C2.5 16.9478 2.94772 16.5001 3.5 16.5001H9C9.55228 16.5001 10 16.9478 10 17.5001C10 18.0524 9.55228 18.5001 9 18.5001H3.5C2.94772 18.5001 2.5 18.0524 2.5 17.5001Z" fill="#692170"/>
<path fill-rule="evenodd" clip-rule="evenodd" d="M1 12.0001C1 11.4478 1.44772 11.0001 2 11.0001H6.5C7.05228 11.0001 7.5 11.4478 7.5 12.0001C7.5 12.5524 7.05228 13.0001 6.5 13.0001H2C1.44772 13.0001 1 12.5524 1 12.0001Z" fill="#692170"/>
<path fill-rule="evenodd" clip-rule="evenodd" d="M3 6.50012C3 5.94783 3.44772 5.50012 4 5.50012H9C9.55228 5.50012 10 5.94783 10 6.50012C10 7.0524 9.55228 7.50012 9 7.50012H4C3.44772 7.50012 3 7.0524 3 6.50012Z" fill="#692170"/>
</svg>
